<svg width="186" height="75" viewBox="0 0 186 75" fill="none" xmlns="http://www.w3.org/2000/svg">
<path d="M172.341 48.4169H167.28C166.233 48.4169 165.359 47.7235 165.359 46.8567C165.359 45.8166 166.233 45.2966 167.28 45.2966H176.528L178.624 40.6198H167.28C162.569 40.6198 159.95 43.3898 159.95 47.0301C159.95 50.6704 162.569 53.0937 166.582 53.0937H171.642C172.69 53.0937 173.563 53.7871 173.563 54.6538C173.563 55.5205 172.865 56.2139 171.642 56.2139H160.474V60.8907H171.642C176.354 60.8907 178.973 58.1208 178.973 54.3071C178.973 50.4934 176.528 48.4169 172.341 48.4169ZM151.924 48.4169H146.864C145.816 48.4169 144.943 47.7235 144.943 46.8567C144.943 45.8166 145.816 45.2966 146.864 45.2966H156.111L158.207 40.6198H146.864C142.152 40.6198 139.537 43.3898 139.537 47.0301C139.537 50.6704 142.152 53.0937 146.169 53.0937H151.229C152.277 53.0937 153.15 53.7871 153.15 54.6538C153.15 55.5205 152.452 56.2139 151.229 56.2139H140.06V60.8907H151.229C155.941 60.8907 158.556 58.1208 158.556 54.3071C158.731 50.4971 156.29 48.4169 151.924 48.4169ZM119.644 61.0605H137.095V56.3837H125.228V53.0937H136.921V48.4169H125.228V45.1269H137.095V40.4501H119.644V61.0641V61.0605ZM108.824 49.2836H103.065V45.1269H108.824C110.396 45.1269 111.269 46.167 111.269 47.207C111.269 48.4205 110.396 49.2872 108.824 49.2872M116.85 47.0337C116.85 43.0503 114.056 40.4501 109.519 40.4501H97.4771V61.0641H103.062V53.964H105.157L111.44 61.0641H118.072L111.265 53.6173C114.754 52.7506 116.85 50.3273 116.85 47.0337ZM87.0104 49.6339H81.0768V45.1305H87.0104C88.5821 45.1305 89.4552 46.1706 89.4552 47.384C89.4552 48.5974 88.7567 49.6375 87.0104 49.6375M87.7089 40.4573H75.667V61.0713H81.2514V54.3143H87.7089C92.4202 54.3143 95.2142 51.371 95.2142 47.384C95.0396 43.2272 92.2492 40.4537 87.7089 40.4537M74.6229 40.4537H67.4705L62.2353 46.6906L56.8256 40.4537H49.4949L58.7428 50.674L49.3203 61.0677H56.4727L62.0571 54.4841L67.6415 61.0677H74.9685L65.546 50.5007L74.6192 40.4537H74.6229ZM31.1737 61.0677H48.6218V56.3909H36.5798V53.1009H48.2725V48.4241H36.5798V45.1341H48.6218V40.4573H31.1737V61.0713V61.0677ZM170.245 26.5894L161.696 14.1191H154.714V34.5598H160.299V21.5659L169.023 34.5562H175.655V14.1191H170.245V26.593V26.5894ZM138.136 25.896L141.101 18.9657L144.066 25.896H138.132H138.136ZM137.437 14.1155L128.364 34.7296H134.472L136.219 30.5728H145.816L147.562 34.7296H153.845L144.597 14.1191H137.441L137.437 14.1155ZM119.291 24.5092V24.1625C119.291 21.0459 121.037 18.9657 124.526 18.9657H130.634V13.9458H124.002C117.195 13.9458 113.706 18.2759 113.706 23.9928V24.3395C113.706 30.7498 117.719 34.3865 123.827 34.3865H125.748L128.015 29.7097H124.701C121.386 29.883 119.291 27.9762 119.291 24.5128M105.332 34.5598H110.916V14.1191H105.332V34.5598ZM94.5121 22.7794H88.7531V18.6226H94.5121C96.0837 18.6226 96.9569 19.6627 96.9569 20.7028C96.9569 21.9162 96.0837 22.783 94.5121 22.783M102.538 20.7028C102.538 16.7194 99.7436 14.1191 95.2106 14.1191H83.1687V34.7332H88.7531V27.4598H90.8486L97.1315 34.5634H103.938L96.9605 27.1167C100.449 26.4233 102.545 23.8267 102.545 20.7064M62.0607 34.5634H79.5088V29.8866H67.6415V26.5966H79.1595V21.9198H67.6415V18.6298H79.5088V14.1191H62.0607V34.5598V34.5634ZM44.438 26.9397L39.7231 14.1191H31.1737V34.5598H36.5835V19.836L41.9932 34.5598H46.8791L52.2889 19.836V34.5598H57.8733V14.1191H49.1493L44.438 26.9361V26.9397ZM14.4241 25.8996L17.3891 18.9693L20.3541 25.8996H14.4205H14.4241ZM13.722 14.1191L4.64868 34.5598H10.757L12.5032 30.4031H22.1004L23.8467 34.5598H30.1296L20.878 14.1191H13.722Z" fill="#006FCF"/>
</svg>
