<svg xmlns="http://www.w3.org/2000/svg" width="200" height="120.94" viewBox="0 0 200 120.94"><path d="M431.941,1834.478v120.94h200v-120.94Zm10.71,10.71H621.23v99.52H442.651Zm32.927,13.5.2,4.21c0,.078.006.156.008.233a11.831,11.831,0,0,1-11.863,11.873L463.8,1875l-4.257-.255V1916l4.2-.2c.057,0,.113-.005.169-.006a11.836,11.836,0,0,1,11.861,11.516l.122,3.89H587.314l.122-3.89a11.836,11.836,0,0,1,11.855-11.516c.234.005.468.016.7.035l4.347.359v-41.5l-4.289.293q-.371.025-.743.027a11.831,11.831,0,0,1-11.891-11.866c0-.063.005-.126.01-.189l.264-4.264Zm7.879,8.033h96.291a19.953,19.953,0,0,0,16.559,16.015v25.324a19.981,19.981,0,0,0-16.387,15.106H483.293a20.02,20.02,0,0,0-15.719-15.039v-25.46A19.992,19.992,0,0,0,483.457,1866.726Zm48.483,9.12a19.1,19.1,0,1,0,19.1,19.1A19.163,19.163,0,0,0,531.94,1875.846Zm0,8.033a11.069,11.069,0,1,1-11.069,11.069A11.008,11.008,0,0,1,531.94,1883.879Z" transform="translate(-431.941 -1834.478)"/></svg>