<svg width="186" height="75" viewBox="0 0 186 75" fill="none" xmlns="http://www.w3.org/2000/svg">
<path fill-rule="evenodd" clip-rule="evenodd" d="M112.207 68.1803C129.312 68.1803 143.179 54.4786 143.179 37.5767C143.179 20.6748 129.312 6.97314 112.207 6.97314C104.541 6.97314 97.5251 9.7252 92.1167 14.284C86.7083 9.72521 79.6927 6.97315 72.0266 6.97315C54.9212 6.97315 41.0544 20.6748 41.0544 37.5767C41.0544 54.4786 54.9212 68.1803 72.0266 68.1803C79.6927 68.1803 86.7084 65.4283 92.1167 60.8695C97.5251 65.4283 104.541 68.1803 112.207 68.1803Z" fill="#ED0006"/>
<path fill-rule="evenodd" clip-rule="evenodd" d="M92.1165 60.8696C98.7759 55.2563 102.999 46.9038 102.999 37.5767C102.999 28.2497 98.7759 19.8972 92.1165 14.2839C97.5248 9.72516 104.54 6.97314 112.206 6.97314C129.312 6.97314 143.179 20.6748 143.179 37.5767C143.179 54.4786 129.312 68.1803 112.206 68.1803C104.54 68.1803 97.5248 65.4283 92.1165 60.8696Z" fill="#F9A000"/>
<path fill-rule="evenodd" clip-rule="evenodd" d="M92.1166 60.8696C98.776 55.2564 102.999 46.9039 102.999 37.5769C102.999 28.2499 98.776 19.8974 92.1166 14.2842C85.4573 19.8974 81.2346 28.2499 81.2346 37.5769C81.2346 46.9039 85.4573 55.2564 92.1166 60.8696Z" fill="#FF5E00"/>
</svg>
