<svg width="186" height="75" viewBox="0 0 186 75" fill="none" xmlns="http://www.w3.org/2000/svg">
<path d="M71.8739 27.4313H62.6133C61.9798 27.4313 61.4407 27.8761 61.3416 28.4816L57.5962 51.4435C57.5306 51.8508 57.8186 52.2321 58.2398 52.2963C58.2793 52.3021 58.3195 52.3053 58.3603 52.3053H62.7813C63.4155 52.3053 63.9546 51.8592 64.053 51.2538L65.0635 45.0604C65.1613 44.4556 65.7004 44.0094 66.3338 44.0088H69.2656C75.3661 44.0088 78.8865 41.1546 79.8059 35.498C80.2204 33.0232 79.8233 31.0787 78.6253 29.717C77.3088 28.2219 74.9744 27.4307 71.8752 27.4307L71.8739 27.4313ZM72.942 35.8178C72.4357 39.0308 69.8964 39.0308 67.4415 39.0308H66.0439L67.0243 33.0303C67.0839 32.6677 67.4066 32.4003 67.7863 32.4003H68.4265C70.0986 32.4003 71.6763 32.4003 72.4913 33.3223C72.9775 33.8721 73.1261 34.6892 72.9406 35.8178H72.942ZM99.5559 35.7142H95.1215C94.7418 35.7142 94.4184 35.9816 94.3594 36.3443L94.1632 37.5434L93.8532 37.109C92.8929 35.7615 90.752 35.3115 88.6152 35.3115C83.7147 35.3115 79.5287 38.9006 78.7137 43.935C78.2898 46.446 78.8925 48.8476 80.3657 50.5221C81.7171 52.0619 83.651 52.7035 85.9513 52.7035C89.9002 52.7035 92.0893 50.2488 92.0893 50.2488L91.8918 51.4402C91.8241 51.8475 92.1114 52.2302 92.532 52.295C92.5721 52.3014 92.6123 52.304 92.6525 52.304H96.647C97.2811 52.304 97.8202 51.8579 97.9186 51.2525L100.315 36.5761C100.383 36.1707 100.097 35.7887 99.6778 35.7239C99.6376 35.7175 99.5968 35.7142 99.5559 35.7142ZM93.3744 44.06C92.9465 46.5095 90.9355 48.1541 88.3708 48.1541C87.083 48.1541 86.0538 47.7546 85.3928 46.9977C84.7372 46.2459 84.4881 45.1763 84.697 43.9848C85.0968 41.556 87.1413 39.8576 89.6665 39.8576C90.9261 39.8576 91.9494 40.2623 92.6237 41.0257C93.2994 41.7969 93.5672 42.8731 93.3737 44.0593L93.3744 44.06ZM123.175 35.7142H118.718C118.291 35.7149 117.892 35.9195 117.653 36.2601L111.507 45.0144L108.901 36.602C108.737 36.0749 108.235 35.7142 107.666 35.7142H103.287C102.86 35.7129 102.514 36.0464 102.512 36.4589C102.512 36.5417 102.527 36.6233 102.554 36.7017L107.463 50.6302L102.848 56.9292C102.601 57.2652 102.683 57.7314 103.03 57.9697C103.161 58.0597 103.317 58.1076 103.477 58.1076H107.929C108.35 58.1076 108.746 57.9088 108.986 57.5734L123.808 36.8856C124.051 36.5469 123.964 36.082 123.614 35.847C123.485 35.7602 123.331 35.7136 123.174 35.7136L123.175 35.7142Z" fill="#253B80"/>
<path d="M137.929 27.4315H128.667C128.034 27.4315 127.495 27.877 127.397 28.4817L123.651 51.4436C123.585 51.8503 123.872 52.2317 124.292 52.2958C124.332 52.3016 124.372 52.3048 124.412 52.3048H129.165C129.609 52.3048 129.985 51.9921 130.054 51.5693L131.117 45.0605C131.214 44.4557 131.753 44.0096 132.387 44.009H135.317C141.419 44.009 144.938 41.1547 145.859 35.4981C146.275 33.0233 145.875 31.0789 144.677 29.7172C143.363 28.2221 141.029 27.4308 137.93 27.4308L137.929 27.4315ZM138.997 35.818C138.492 39.0309 135.953 39.0309 133.497 39.0309H132.1L133.082 33.0305C133.14 32.6679 133.463 32.4004 133.843 32.4004H134.483C136.154 32.4004 137.733 32.4004 138.548 33.3225C139.034 33.8722 139.181 34.6894 138.996 35.818H138.997ZM165.61 35.7144H161.178C160.798 35.7131 160.475 35.9812 160.417 36.3444L160.221 37.5436L159.91 37.1091C158.949 35.7617 156.81 35.3116 154.673 35.3116C149.772 35.3116 145.589 38.9008 144.773 43.9351C144.35 46.4462 144.95 48.8478 146.424 50.5222C147.778 52.062 149.709 52.7037 152.009 52.7037C155.958 52.7037 158.147 50.249 158.147 50.249L157.95 51.4404C157.882 51.8477 158.169 52.2304 158.59 52.2951C158.631 52.3016 158.672 52.3048 158.713 52.3042H162.706C163.34 52.3042 163.878 51.858 163.976 51.2526L166.374 36.5762C166.439 36.1683 166.15 35.7863 165.728 35.7235C165.689 35.7176 165.649 35.7144 165.61 35.715V35.7144ZM159.428 44.0601C159.003 46.5096 156.989 48.1543 154.425 48.1543C153.139 48.1543 152.108 47.7548 151.447 46.9979C150.791 46.2461 150.545 45.1764 150.751 43.985C151.153 41.5562 153.195 39.8578 155.72 39.8578C156.98 39.8578 158.003 40.2625 158.678 41.0259C159.356 41.7971 159.624 42.8732 159.428 44.0595L159.428 44.0601ZM170.838 28.0615L167.037 51.4436C166.97 51.8503 167.257 52.2317 167.677 52.2958C167.717 52.3016 167.757 52.3048 167.797 52.3048H171.619C172.253 52.3048 172.792 51.8593 172.89 51.2533L176.638 28.2927C176.705 27.8854 176.417 27.5033 175.996 27.4392C175.957 27.4334 175.917 27.4302 175.877 27.4302H171.598C171.218 27.4315 170.896 27.6989 170.837 28.0615H170.838Z" fill="#179BD7"/>
<path d="M19.1375 56.7671L19.846 52.4171L18.2683 52.3815H10.7354L15.97 20.2865C16.0022 20.0838 16.183 19.9343 16.3952 19.9356H29.0972C33.314 19.9356 36.2236 20.7838 37.7431 22.4589C38.4556 23.2443 38.9089 24.0654 39.1286 24.9686C39.3589 25.9166 39.363 27.0491 39.138 28.4309L39.1219 28.5319V29.417L39.8344 29.8075C40.3782 30.0736 40.867 30.4342 41.2768 30.8707C41.8862 31.5421 42.28 32.3962 42.4467 33.4082C42.6188 34.4494 42.5619 35.6881 42.28 37.09C41.9552 38.7029 41.4295 40.108 40.7204 41.2573C40.0942 42.2875 39.2525 43.1791 38.2493 43.8759C37.3071 44.5227 36.1868 45.0135 34.9212 45.3282C33.6944 45.6371 32.2955 45.7931 30.7613 45.7931H29.7729C29.0657 45.7931 28.3793 46.0392 27.8403 46.4808C27.3019 46.9269 26.9449 47.5427 26.8331 48.2193L26.7588 48.6111L25.5079 56.2776L25.4509 56.5592C25.4362 56.6486 25.4101 56.6926 25.3726 56.7231C25.3358 56.7522 25.2902 56.7684 25.2427 56.769H19.1395L19.1375 56.7671Z" fill="#253B80"/>
<path d="M40.508 28.6338C40.4698 28.8682 40.427 29.1078 40.3781 29.3538C38.7033 37.6698 32.9724 40.5421 25.6531 40.5421H21.9265C21.0312 40.5421 20.2771 41.1708 20.1379 42.0242L18.23 53.7247L17.6896 57.0412C17.6072 57.5444 17.9622 58.0164 18.4825 58.096C18.5314 58.1038 18.5809 58.107 18.6311 58.107H25.2406C26.0234 58.107 26.6884 57.5573 26.8116 56.8107L26.8766 56.4863L28.1208 48.8503L28.2005 48.4313C28.3223 47.6822 28.9886 47.1324 29.7715 47.1324H30.7599C37.1637 47.1324 42.1768 44.6188 43.642 37.3441C44.254 34.3053 43.9373 31.7677 42.3174 29.9832C41.8038 29.4309 41.191 28.9744 40.508 28.6344V28.6338Z" fill="#179BD7"/>
<path d="M38.7562 27.9579C38.2212 27.8083 37.6774 27.6918 37.1269 27.6082C36.0401 27.447 34.9412 27.3693 33.8416 27.3764H23.8859C23.1031 27.3764 22.4368 27.9275 22.3163 28.6753L20.1981 41.6455L20.1372 42.0237C20.2738 41.1703 21.0332 40.5409 21.9258 40.5416H25.6525C32.9718 40.5416 38.702 37.6673 40.3774 29.3533C40.4277 29.1072 40.4698 28.8676 40.5073 28.6332C40.0654 28.4092 39.6047 28.2214 39.1299 28.0718C39.0053 28.0317 38.8808 27.9941 38.7549 27.9579H38.7562Z" fill="#222D65"/>
<path d="M22.3163 28.6751C22.4355 27.9266 23.1025 27.3749 23.886 27.3775H33.8417C35.0209 27.3775 36.1218 27.452 37.127 27.6093C37.8067 27.7129 38.4777 27.867 39.1326 28.0716C39.6268 28.2303 40.0862 28.4174 40.5101 28.633C41.0083 25.56 40.506 23.4679 38.7877 21.5733C36.8919 19.4876 33.4727 18.5947 29.0979 18.5947H16.3959C15.5019 18.5947 14.7399 19.2235 14.6019 20.0782L9.31099 52.5041C9.21656 53.0797 9.62304 53.6204 10.2184 53.7117C10.2746 53.7201 10.3309 53.7246 10.3878 53.7246H18.2294L20.1982 41.646L22.3163 28.6758V28.6751Z" fill="#253B80"/>
</svg>
