<svg width="595" height="681" viewBox="0 0 595 681" fill="none" xmlns="http://www.w3.org/2000/svg">
<rect x="13" y="83" width="555" height="555" fill="white"/>
<path d="M83.2688 580.764V140.189H177.792C205.918 140.189 230.127 145.085 250.42 154.875C270.713 164.488 286.378 178.194 297.415 195.995C308.451 213.796 313.97 235.069 313.97 259.812C313.97 284.199 308.629 305.56 297.949 323.895C287.268 342.23 272.226 356.649 252.823 367.152C233.42 377.654 210.546 383.351 184.2 384.241L332.127 580.764H312.902L164.975 384.241H98.2216V580.764H83.2688ZM98.2216 369.822H177.792C202.535 369.822 224.075 365.283 242.41 356.204C260.745 347.126 274.896 334.398 284.865 318.021C295.012 301.466 300.085 282.063 300.085 259.812C300.085 226.88 289.137 200.891 267.242 181.844C245.347 162.619 215.53 153.006 177.792 153.006H98.2216V369.822Z" fill="black"/>
<path d="M387.544 581.696C364.413 581.696 344.538 577.841 327.918 570.131C311.47 562.249 297.849 552.911 287.054 542.117C276.26 531.151 268.036 520.7 262.382 510.762C256.899 500.825 253.558 493.8 252.359 489.688L263.667 483.52C265.209 488.146 268.636 495.085 273.947 504.337C279.259 513.418 286.797 522.927 296.564 532.865C306.33 542.631 318.666 551.027 333.572 558.051C348.65 564.905 366.641 568.332 387.544 568.332C407.59 568.332 426.095 564.648 443.057 557.28C460.019 549.741 473.641 538.605 483.921 523.87C494.372 508.963 499.598 490.544 499.598 468.613C499.598 450.623 496.086 435.46 489.061 423.123C482.207 410.787 472.955 400.507 461.304 392.283C449.653 383.887 436.717 376.777 422.496 370.951C408.447 365.126 394.226 359.814 379.833 355.017C370.239 351.761 359.616 347.735 347.965 342.938C336.314 338.14 325.091 331.886 314.297 324.176C303.674 316.295 294.85 306.357 287.825 294.363C280.972 282.37 277.545 267.463 277.545 249.644C277.545 234.567 280.201 220.517 285.512 207.495C290.995 194.474 298.534 183.08 308.129 173.314C317.895 163.376 329.46 155.666 342.825 150.183C356.189 144.529 370.838 141.702 386.773 141.702C404.592 141.702 420.269 144.872 433.805 151.211C447.512 157.551 458.906 165.518 467.986 175.113C477.067 184.708 483.664 194.302 487.776 203.897L475.954 209.552C472.527 200.813 466.701 192.246 458.477 183.851C450.424 175.455 440.316 168.602 428.151 163.29C415.986 157.808 402.022 155.066 386.259 155.066C365.698 155.066 348.222 159.778 333.829 169.202C319.608 178.625 308.814 190.619 301.447 205.182C294.079 219.746 290.395 234.824 290.395 250.415C290.395 265.322 293.394 277.915 299.391 288.195C305.559 298.304 313.44 306.785 323.035 313.639C332.801 320.492 343.253 326.232 354.39 330.858C365.527 335.313 376.235 339.254 386.516 342.68C401.251 347.649 415.986 353.303 430.721 359.643C445.627 365.811 459.248 373.521 471.585 382.773C484.092 391.854 494.115 403.334 501.654 417.212C509.193 430.919 512.962 447.796 512.962 467.842C512.962 492.172 507.223 512.818 495.743 529.781C484.264 546.743 469.014 559.679 449.996 568.589C431.149 577.327 410.332 581.696 387.544 581.696Z" fill="black"/>
<path d="M84.1734 580.221V140.947H98.4753V432.094L207.272 318.7H226.171L112.011 438.734L232.811 580.221H214.423L98.4753 444.608V580.221H84.1734Z" fill="black"/>
<path d="M297.689 548.008L327.726 480.683L264.544 348.104H280.081L335.495 466.052L385.988 348.104H401.525L312.967 548.008H297.689Z" fill="black"/>
<path d="M382.956 580.221V140.947H397.258V580.221H382.956Z" fill="black"/>
<path d="M136.459 254.747C126.54 254.747 117.586 252.336 109.596 247.514C101.674 242.624 95.372 235.943 90.6882 227.47C86.0733 218.998 83.7659 209.321 83.7659 198.438C83.7659 187.693 86.0389 178.118 90.5849 169.715C95.1998 161.243 101.468 154.562 109.389 149.671C117.379 144.781 126.402 142.336 136.459 142.336C146.033 142.336 154.712 144.574 162.495 149.051C170.278 153.529 176.202 159.728 180.266 167.649V145.642H195.35V251.44H180.266V229.124C175.72 237.114 169.624 243.382 161.978 247.928C154.333 252.474 145.826 254.747 136.459 254.747ZM140.178 241.625C148.099 241.625 155.09 239.8 161.152 236.149C167.282 232.43 172.104 227.333 175.616 220.858C179.129 214.315 180.886 206.876 180.886 198.541C180.886 190.138 179.129 182.699 175.616 176.224C172.172 169.75 167.385 164.687 161.255 161.036C155.125 157.317 148.099 155.457 140.178 155.457C132.257 155.457 125.231 157.317 119.101 161.036C112.971 164.687 108.149 169.75 104.636 176.224C101.123 182.699 99.367 190.138 99.367 198.541C99.367 206.876 101.123 214.315 104.636 220.858C108.149 227.333 112.971 232.43 119.101 236.149C125.231 239.8 132.257 241.625 140.178 241.625Z" fill="black"/>
<path d="M432.623 535.81C415.421 535.81 403.177 531.82 395.893 523.838C388.609 515.779 384.967 502.296 384.967 483.389V413.067H397.288V481.645C397.288 497.298 400 508.495 405.425 515.237C410.849 521.901 419.915 525.233 432.623 525.233C445.332 525.233 454.359 521.901 459.706 515.237C465.13 508.495 467.842 497.298 467.842 481.645V413.067H480.163V483.389C480.163 502.296 476.521 515.779 469.237 523.838C462.03 531.82 449.826 535.81 432.623 535.81Z" fill="black"/>
<path d="M445.424 275.893C435.72 275.893 427.041 273.753 419.387 269.474C411.793 265.195 405.827 259.379 401.487 252.026C397.148 244.613 394.978 236.296 394.978 227.075C394.978 220.144 396.214 213.695 398.685 207.728C401.216 201.701 404.712 196.428 409.172 191.908C413.632 187.387 418.815 183.862 424.721 181.33C430.627 178.799 436.926 177.533 443.616 177.533C452.776 177.533 460.913 179.552 468.025 183.59C475.197 187.568 480.862 193.083 485.021 200.134C489.239 207.186 491.469 215.322 491.71 224.543C491.71 225.267 491.68 225.869 491.62 226.352C491.62 226.773 491.56 227.316 491.439 227.979H408.087C408.087 235.211 409.714 241.6 412.969 247.144C416.223 252.689 420.683 257.059 426.348 260.253C432.074 263.387 438.613 264.954 445.966 264.954C452.957 264.954 459.225 263.508 464.77 260.615C470.375 257.661 475.046 253.443 478.783 247.958L488.546 253.202C484.147 260.374 478.15 265.948 470.556 269.926C463.022 273.904 454.645 275.893 445.424 275.893ZM408.81 218.034H478.511C477.728 212.248 475.709 207.156 472.454 202.756C469.2 198.296 465.071 194.801 460.069 192.269C455.127 189.738 449.703 188.472 443.796 188.472C437.709 188.472 432.164 189.738 427.162 192.269C422.16 194.74 418.031 198.206 414.777 202.666C411.582 207.065 409.593 212.188 408.81 218.034Z" fill="black"/>
<path d="M372.054 348.877C363.384 348.877 356.677 345.933 351.933 340.044C347.27 334.073 344.939 325.689 344.939 314.892V229.131H333.038V219.315H344.939V172.447H357.945V219.315H390.09V229.131H357.945V314.278C357.945 321.803 359.376 327.57 362.239 331.578C365.102 335.504 369.191 337.467 374.508 337.467C379.661 337.467 384.037 336.077 387.636 333.296L390.949 343.724C388.576 345.278 385.714 346.505 382.36 347.405C379.007 348.387 375.571 348.877 372.054 348.877Z" fill="black"/>
</svg>
