<svg width="186" height="75" viewBox="0 0 186 75" fill="none" xmlns="http://www.w3.org/2000/svg">
<path fill-rule="evenodd" clip-rule="evenodd" d="M55.388 60.1259H42.5106L32.8541 22.2023C32.3957 20.4578 31.4225 18.9156 29.991 18.1887C26.4185 16.3621 22.4818 14.9083 18.1873 14.1751V12.7151H38.9318C41.7948 12.7151 43.9421 14.9083 44.3 17.4555L49.3103 44.8111L62.1814 12.7151H74.7009L55.388 60.1259ZM81.8584 60.1259H69.6968L79.7111 12.7151H91.8728L81.8584 60.1259ZM107.607 25.8492C107.965 23.2957 110.112 21.8357 112.617 21.8357C116.554 21.4691 120.842 22.2023 124.421 24.0226L126.568 13.8148C122.99 12.3548 119.053 11.6216 115.48 11.6216C103.677 11.6216 95.0875 18.1887 95.0875 27.303C95.0875 34.2367 101.172 37.8773 105.466 40.0706C110.112 42.2575 111.902 43.7176 111.544 45.9045C111.544 49.1849 107.965 50.645 104.392 50.645C100.098 50.645 95.8033 49.5515 91.8729 47.7248L89.7256 57.9389C94.0202 59.7593 98.6663 60.4924 102.961 60.4924C116.196 60.8527 124.421 54.2919 124.421 44.4444C124.421 32.0434 107.607 31.3166 107.607 25.8492V25.8492ZM166.984 60.1259L157.327 12.7151H146.955C144.808 12.7151 142.66 14.1751 141.945 16.3621L124.063 60.1259H136.583L139.082 53.1985H154.464L155.896 60.1259H166.984ZM148.744 25.4829L152.317 43.3512H142.303L148.744 25.4829Z" fill="#172B85"/>
</svg>
